{"asset":{"version":"2.0","generator":"Blockbench 4.7.2 glTF exporter"},"scenes":[{"nodes":[8],"name":"blockbench_export"}],"scene":0,"nodes":[{"translation":[0.05971387246550108,-0.48989375990059614,0.00003053468858653374],"name":"cube","mesh":0},{"translation":[0.07533887246550108,0.9319812400994039,0.00003053468858653374],"name":"cube","mesh":1},{"translation":[0.07533887246550108,4.900731240099404,0.00003053468858653374],"name":"cube","mesh":2},{"translation":[0.07533887246550108,5.838231240099404,0.00003053468858653374],"name":"cube","mesh":3},{"translation":[0.05971387246550108,0.38510624009940386,0.00003053468858653374],"name":"cube","mesh":4},{"translation":[0.05971387246550108,-0.11489375990059614,0.00003053468858653374],"name":"cube","mesh":5},{"translation":[0.07533887246550108,2.681981240099404,0.00003053468858653374],"name":"cube","mesh":6},{"translation":[-0.07533887246550108,0.47426875990059614,0.12496946531141347],"name":"sword","children":[0,1,2,3,4,5,6]},{"children":[7]}],"bufferViews":[{"buffer":0,"byteOffset":0,"byteLength":288,"target":34962,"byteStride":12},{"buffer":0,"byteOffset":288,"byteLength":288,"target":34962,"byteStride":12},{"buffer":0,"byteOffset":576,"byteLength":192,"target":34962,"byteStride":8},{"buffer":0,"byteOffset":768,"byteLength":72,"target":34963},{"buffer":0,"byteOffset":840,"byteLength":288,"target":34962,"byteStride":12},{"buffer":0,"byteOffset":1128,"byteLength":288,"target":34962,"byteStride":12},{"buffer":0,"byteOffset":1416,"byteLength":192,"target":34962,"byteStride":8},{"buffer":0,"byteOffset":1608,"byteLength":72,"target":34963},{"buffer":0,"byteOffset":1680,"byteLength":288,"target":34962,"byteStride":12},{"buffer":0,"byteOffset":1968,"byteLength":288,"target":34962,"byteStride":12},{"buffer":0,"byteOffset":2256,"byteLength":192,"target":34962,"byteStride":8},{"buffer":0,"byteOffset":2448,"byteLength":72,"target":34963},{"buffer":0,"byteOffset":2520,"byteLength":288,"target":34962,"byteStride":12},{"buffer":0,"byteOffset":2808,"byteLength":288,"target":34962,"byteStride":12},{"buffer":0,"byteOffset":3096,"byteLength":192,"target":34962,"byteStride":8},{"buffer":0,"byteOffset":3288,"byteLength":72,"target":34963},{"buffer":0,"byteOffset":3360,"byteLength":288,"target":34962,"byteStride":12},{"buffer":0,"byteOffset":3648,"byteLength":288,"target":34962,"byteStride":12},{"buffer":0,"byteOffset":3936,"byteLength":192,"target":34962,"byteStride":8},{"buffer":0,"byteOffset":4128,"byteLength":72,"target":34963},{"buffer":0,"byteOffset":4200,"byteLength":288,"target":34962,"byteStride":12},{"buffer":0,"byteOffset":4488,"byteLength":288,"target":34962,"byteStride":12},{"buffer":0,"byteOffset":4776,"byteLength":192,"target":34962,"byteStride":8},{"buffer":0,"byteOffset":4968,"byteLength":72,"target":34963},{"buffer":0,"byteOffset":5040,"byteLength":288,"target":34962,"byteStride":12},{"buffer":0,"byteOffset":5328,"byteLength":288,"target":34962,"byteStride":12},{"buffer":0,"byteOffset":5616,"byteLength":192,"target":34962,"byteStride":8},{"buffer":0,"byteOffset":5808,"byteLength":72,"target":34963},{"buffer":0,"byteOffset":5880,"byteLength":24},{"buffer":0,"byteOffset":5904,"byteLength":96},{"buffer":0,"byteOffset":6000,"byteLength":20},{"buffer":0,"byteOffset":6020,"byteLength":60}],"buffers":[{"byteLength":6080,"uri":"data:application/octet-stream;base64,"}],"accessors":[{"bufferView":0,"componentType":5126,"count":24,"max":[0.15625,0.375,0.0625],"min":[-0.15625,0.109375,-0.0625],"type":"VEC3"},{"bufferView":1,"componentType":5126,"count":24,"max":[1,1,1],"min":[-1,-1,-1],"type":"VEC3"},{"bufferView":2,"componentType":5126,"count":24,"max":[0.4453125,0.4375],"min":[0.0859375,0.0859375],"type":"VEC2"},{"bufferView":3,"componentType":5123,"count":36,"max":[23],"min":[0],"type":"SCALAR"},{"bufferView":4,"componentType":5126,"count":24,"max":[0.546875,0.0625,0.17631325125694275],"min":[-0.609375,-0.06387743353843689,-0.171875],"type":"VEC3"},{"bufferView":5,"componentType":5126,"count":24,"max":[0.9999988675117493,1,1],"min":[-1,-0.9999999403953552,-1],"type":"VEC3"},{"bufferView":6,"componentType":5126,"count":24,"max":[0.4514492154121399,0.390625],"min":[0.09375,0.078125],"type":"VEC2"},{"bufferView":7,"componentType":5123,"count":36,"max":[23],"min":[0],"type":"SCALAR"},{"bufferView":8,"componentType":5126,"count":24,"max":[0.234375,0.5625,0.0625],"min":[-0.234375,-0.5625,-0.0625],"type":"VEC3"},{"bufferView":9,"componentType":5126,"count":24,"max":[0.9938837289810181,1,1],"min":[-0.9938837289810181,-1,-1],"type":"VEC3"},{"bufferView":10,"componentType":5126,"count":24,"max":[0.4375,0.453125],"min":[0.09375,0.0859375],"type":"VEC2"},{"bufferView":11,"componentType":5123,"count":36,"max":[23],"min":[0],"type":"SCALAR"},{"bufferView":12,"componentType":5126,"count":24,"max":[0.109375,0.375,0.0625],"min":[-0.109375,-0.375,-0.0625],"type":"VEC3"},{"bufferView":13,"componentType":5126,"count":24,"max":[0.9922778606414795,1,1],"min":[-0.9922778606414795,-1,-1],"type":"VEC3"},{"bufferView":14,"componentType":5126,"count":24,"max":[0.4375,0.421875],"min":[0,0.09375],"type":"VEC2"},{"bufferView":15,"componentType":5123,"count":36,"max":[23],"min":[0],"type":"SCALAR"},{"bufferView":16,"componentType":5126,"count":24,"max":[0.125,0.5,0.0625],"min":[-0.125,0,-0.0625],"type":"VEC3"},{"bufferView":17,"componentType":5126,"count":24,"max":[0.9995120763778687,1,1],"min":[-0.9995120763778687,-1,-1],"type":"VEC3"},{"bufferView":18,"componentType":5126,"count":24,"max":[0.4375,0.4296875],"min":[0.296875,0.15625],"type":"VEC2"},{"bufferView":19,"componentType":5123,"count":36,"max":[23],"min":[0],"type":"SCALAR"},{"bufferView":20,"componentType":5126,"count":24,"max":[0.109375,0.5,0.0625],"min":[-0.109375,0,-0.0625],"type":"VEC3"},{"bufferView":21,"componentType":5126,"count":24,"max":[1,1,1],"min":[-1,-1,-1],"type":"VEC3"},{"bufferView":22,"componentType":5126,"count":24,"max":[0.4375,0.4296875],"min":[0.3203125,0.15625],"type":"VEC2"},{"bufferView":23,"componentType":5123,"count":36,"max":[23],"min":[0],"type":"SCALAR"},{"bufferView":24,"componentType":5126,"count":24,"max":[0.31257888674736023,1.6875,0.0625],"min":[-0.359375,-1.6875,-0.06516294926404953],"type":"VEC3"},{"bufferView":25,"componentType":5126,"count":24,"max":[0.9997315406799316,1,1],"min":[-0.9993148446083069,-0.9999996423721313,-1],"type":"VEC3"},{"bufferView":26,"componentType":5126,"count":24,"max":[0.45998188853263855,0.515625],"min":[0.0009714843472465873,0],"type":"VEC2"},{"bufferView":27,"componentType":5123,"count":36,"max":[23],"min":[0],"type":"SCALAR"},{"bufferView":28,"componentType":5126,"count":6,"max":[1],"min":[0],"type":"SCALAR"},{"bufferView":29,"componentType":5126,"count":6,"max":[0.30616337060928345,0.5774151682853699,0.2715236246585846,1],"min":[-0.06219106912612915,0,-0.5643954277038574,0.5477664470672607],"type":"VEC4"},{"bufferView":30,"componentType":5126,"count":5,"max":[1],"min":[0],"type":"SCALAR"},{"bufferView":31,"componentType":5126,"count":5,"max":[-0.07533887028694153,0.47426876425743103,0.1249694675207138],"min":[-0.8253389000892639,-0.3732312321662903,-1.437530517578125],"type":"VEC3"}],"materials":[{"pbrMetallicRoughness":{"metallicFactor":0,"roughnessFactor":1,"baseColorTexture":{"index":0}},"alphaMode":"MASK","alphaCutoff":0.05,"doubleSided":true}],"textures":[{"sampler":0,"source":0,"name":"texture.png"}],"samplers":[{"magFilter":9728,"minFilter":9728,"wrapS":33071,"wrapT":33071}],"images":[{"mimeType":"image/png","uri":"data:image/png;base64,"}],"meshes":[{"primitives":[{"mode":4,"attributes":{"POSITION":0,"NORMAL":1,"TEXCOORD_0":2},"indices":3,"material":0}]},{"primitives":[{"mode":4,"attributes":{"POSITION":4,"NORMAL":5,"TEXCOORD_0":6},"indices":7,"material":0}]},{"primitives":[{"mode":4,"attributes":{"POSITION":8,"NORMAL":9,"TEXCOORD_0":10},"indices":11,"material":0}]},{"primitives":[{"mode":4,"attributes":{"POSITION":12,"NORMAL":13,"TEXCOORD_0":14},"indices":15,"material":0}]},{"primitives":[{"mode":4,"attributes":{"POSITION":16,"NORMAL":17,"TEXCOORD_0":18},"indices":19,"material":0}]},{"primitives":[{"mode":4,"attributes":{"POSITION":20,"NORMAL":21,"TEXCOORD_0":22},"indices":23,"material":0}]},{"primitives":[{"mode":4,"attributes":{"POSITION":24,"NORMAL":25,"TEXCOORD_0":26},"indices":27,"material":0}]}],"animations":[{"name":"attack","samplers":[{"input":28,"output":29,"interpolation":"LINEAR"},{"input":30,"output":31,"interpolation":"LINEAR"}],"channels":[{"sampler":0,"target":{"node":7,"path":"rotation"}},{"sampler":1,"target":{"node":7,"path":"translation"}}]}]}